<mxfile host="app.diagrams.net" agent="Mozilla/5.0 (Windows NT 10.0; Win64; x64) AppleWebKit/537.36 (KHTML, like Gecko) Chrome/127.0.0.0 Safari/537.36" version="24.7.6">
  <diagram name="페이지-1" id="HJWNIDJ4ArGF2ASim_1Z">
    <mxGraphModel grid="1" page="1" gridSize="10" guides="1" tooltips="1" connect="1" arrows="1" fold="1" pageScale="1" pageWidth="1920" pageHeight="1200" math="0" shadow="0">
      <root>
        <mxCell id="0" />
        <mxCell id="1" parent="0" />
        <mxCell id="aPXMBiHBA66qFUJw5fnC-1" value="관리자" style="shape=umlActor;verticalLabelPosition=bottom;verticalAlign=top;html=1;" vertex="1" parent="1">
          <mxGeometry x="380" y="500" width="30" height="60" as="geometry" />
        </mxCell>
        <mxCell id="aPXMBiHBA66qFUJw5fnC-3" value="공지사항&lt;br&gt;관리" style="ellipse;whiteSpace=wrap;html=1;" vertex="1" parent="1">
          <mxGeometry x="540" y="660" width="140" height="70" as="geometry" />
        </mxCell>
        <mxCell id="aPXMBiHBA66qFUJw5fnC-4" value="창고관리" style="ellipse;whiteSpace=wrap;html=1;" vertex="1" parent="1">
          <mxGeometry x="540" y="265" width="140" height="70" as="geometry" />
        </mxCell>
        <mxCell id="aPXMBiHBA66qFUJw5fnC-6" value="" style="endArrow=none;html=1;rounded=0;entryX=0;entryY=0.5;entryDx=0;entryDy=0;" edge="1" parent="1" source="aPXMBiHBA66qFUJw5fnC-18" target="aPXMBiHBA66qFUJw5fnC-4">
          <mxGeometry width="50" height="50" relative="1" as="geometry">
            <mxPoint x="360" y="330" as="sourcePoint" />
            <mxPoint x="410" y="280" as="targetPoint" />
          </mxGeometry>
        </mxCell>
        <mxCell id="aPXMBiHBA66qFUJw5fnC-8" value="창고등록" style="ellipse;whiteSpace=wrap;html=1;" vertex="1" parent="1">
          <mxGeometry x="750" y="350" width="140" height="70" as="geometry" />
        </mxCell>
        <mxCell id="aPXMBiHBA66qFUJw5fnC-9" value="창고조회" style="ellipse;whiteSpace=wrap;html=1;" vertex="1" parent="1">
          <mxGeometry x="750" y="170" width="140" height="70" as="geometry" />
        </mxCell>
        <mxCell id="aPXMBiHBA66qFUJw5fnC-10" value="&amp;lt;&amp;lt;extend&amp;gt;&amp;gt;" style="html=1;verticalAlign=bottom;labelBackgroundColor=none;endArrow=open;endFill=0;dashed=1;rounded=0;exitX=0;exitY=0.5;exitDx=0;exitDy=0;" edge="1" parent="1" source="aPXMBiHBA66qFUJw5fnC-9" target="aPXMBiHBA66qFUJw5fnC-4">
          <mxGeometry width="160" relative="1" as="geometry">
            <mxPoint x="650" y="380" as="sourcePoint" />
            <mxPoint x="810" y="380" as="targetPoint" />
          </mxGeometry>
        </mxCell>
        <mxCell id="aPXMBiHBA66qFUJw5fnC-11" value="&amp;lt;&amp;lt;extend&amp;gt;&amp;gt;" style="html=1;verticalAlign=bottom;labelBackgroundColor=none;endArrow=open;endFill=0;dashed=1;rounded=0;exitX=0;exitY=0.5;exitDx=0;exitDy=0;entryX=1;entryY=1;entryDx=0;entryDy=0;" edge="1" parent="1" source="aPXMBiHBA66qFUJw5fnC-8" target="aPXMBiHBA66qFUJw5fnC-4">
          <mxGeometry width="160" relative="1" as="geometry">
            <mxPoint x="760" y="215" as="sourcePoint" />
            <mxPoint x="662" y="282" as="targetPoint" />
          </mxGeometry>
        </mxCell>
        <mxCell id="aPXMBiHBA66qFUJw5fnC-12" value="소재지별&lt;br&gt;조회" style="ellipse;whiteSpace=wrap;html=1;" vertex="1" parent="1">
          <mxGeometry x="960" y="50" width="140" height="70" as="geometry" />
        </mxCell>
        <mxCell id="aPXMBiHBA66qFUJw5fnC-13" value="창고명별&lt;br&gt;조회" style="ellipse;whiteSpace=wrap;html=1;" vertex="1" parent="1">
          <mxGeometry x="960" y="170" width="140" height="70" as="geometry" />
        </mxCell>
        <mxCell id="aPXMBiHBA66qFUJw5fnC-14" value="창고종류별&lt;br&gt;조회" style="ellipse;whiteSpace=wrap;html=1;" vertex="1" parent="1">
          <mxGeometry x="960" y="290" width="140" height="70" as="geometry" />
        </mxCell>
        <mxCell id="aPXMBiHBA66qFUJw5fnC-15" value="&amp;lt;&amp;lt;extend&amp;gt;&amp;gt;" style="html=1;verticalAlign=bottom;labelBackgroundColor=none;endArrow=open;endFill=0;dashed=1;rounded=0;exitX=0;exitY=0.5;exitDx=0;exitDy=0;" edge="1" parent="1" source="aPXMBiHBA66qFUJw5fnC-12" target="aPXMBiHBA66qFUJw5fnC-9">
          <mxGeometry width="160" relative="1" as="geometry">
            <mxPoint x="978" y="90" as="sourcePoint" />
            <mxPoint x="880" y="157" as="targetPoint" />
          </mxGeometry>
        </mxCell>
        <mxCell id="aPXMBiHBA66qFUJw5fnC-16" value="&amp;lt;&amp;lt;extend&amp;gt;&amp;gt;" style="html=1;verticalAlign=bottom;labelBackgroundColor=none;endArrow=open;endFill=0;dashed=1;rounded=0;exitX=0;exitY=0.5;exitDx=0;exitDy=0;" edge="1" parent="1" source="aPXMBiHBA66qFUJw5fnC-14" target="aPXMBiHBA66qFUJw5fnC-9">
          <mxGeometry width="160" relative="1" as="geometry">
            <mxPoint x="770" y="225" as="sourcePoint" />
            <mxPoint x="672" y="292" as="targetPoint" />
          </mxGeometry>
        </mxCell>
        <mxCell id="aPXMBiHBA66qFUJw5fnC-17" value="&amp;lt;&amp;lt;extend&amp;gt;&amp;gt;" style="html=1;verticalAlign=bottom;labelBackgroundColor=none;endArrow=open;endFill=0;dashed=1;rounded=0;exitX=0;exitY=0.5;exitDx=0;exitDy=0;entryX=1;entryY=0.5;entryDx=0;entryDy=0;" edge="1" parent="1" source="aPXMBiHBA66qFUJw5fnC-13" target="aPXMBiHBA66qFUJw5fnC-9">
          <mxGeometry width="160" relative="1" as="geometry">
            <mxPoint x="780" y="235" as="sourcePoint" />
            <mxPoint x="682" y="302" as="targetPoint" />
          </mxGeometry>
        </mxCell>
        <mxCell id="aPXMBiHBA66qFUJw5fnC-18" value="창고관리자" style="shape=umlActor;verticalLabelPosition=bottom;verticalAlign=top;html=1;" vertex="1" parent="1">
          <mxGeometry x="260" y="400" width="30" height="60" as="geometry" />
        </mxCell>
        <mxCell id="aPXMBiHBA66qFUJw5fnC-19" value="고객센터&lt;br&gt;관리자" style="shape=umlActor;verticalLabelPosition=bottom;verticalAlign=top;html=1;" vertex="1" parent="1">
          <mxGeometry x="260" y="600" width="30" height="60" as="geometry" />
        </mxCell>
        <mxCell id="aPXMBiHBA66qFUJw5fnC-20" value="" style="endArrow=none;html=1;rounded=0;exitX=0.8;exitY=0.317;exitDx=0;exitDy=0;exitPerimeter=0;entryX=0;entryY=0.5;entryDx=0;entryDy=0;" edge="1" parent="1" source="aPXMBiHBA66qFUJw5fnC-19" target="aPXMBiHBA66qFUJw5fnC-26">
          <mxGeometry width="50" height="50" relative="1" as="geometry">
            <mxPoint x="270" y="688" as="sourcePoint" />
            <mxPoint x="400" y="482" as="targetPoint" />
          </mxGeometry>
        </mxCell>
        <mxCell id="aPXMBiHBA66qFUJw5fnC-21" value="" style="endArrow=none;html=1;rounded=0;" edge="1" parent="1" source="aPXMBiHBA66qFUJw5fnC-1" target="aPXMBiHBA66qFUJw5fnC-18">
          <mxGeometry width="50" height="50" relative="1" as="geometry">
            <mxPoint x="430" y="526" as="sourcePoint" />
            <mxPoint x="560" y="320" as="targetPoint" />
          </mxGeometry>
        </mxCell>
        <mxCell id="aPXMBiHBA66qFUJw5fnC-22" value="" style="endArrow=none;html=1;rounded=0;entryX=0;entryY=0.5;entryDx=0;entryDy=0;exitX=0.767;exitY=0.317;exitDx=0;exitDy=0;exitPerimeter=0;" edge="1" parent="1" source="aPXMBiHBA66qFUJw5fnC-19" target="aPXMBiHBA66qFUJw5fnC-3">
          <mxGeometry width="50" height="50" relative="1" as="geometry">
            <mxPoint x="420" y="516" as="sourcePoint" />
            <mxPoint x="550" y="310" as="targetPoint" />
          </mxGeometry>
        </mxCell>
        <mxCell id="aPXMBiHBA66qFUJw5fnC-23" value="공지사항&lt;br&gt;삭제" style="ellipse;whiteSpace=wrap;html=1;" vertex="1" parent="1">
          <mxGeometry x="890" y="500" width="140" height="70" as="geometry" />
        </mxCell>
        <mxCell id="aPXMBiHBA66qFUJw5fnC-24" value="문의글 조회" style="ellipse;whiteSpace=wrap;html=1;" vertex="1" parent="1">
          <mxGeometry x="750" y="980" width="140" height="70" as="geometry" />
        </mxCell>
        <mxCell id="aPXMBiHBA66qFUJw5fnC-25" value="문의글 삭제" style="ellipse;whiteSpace=wrap;html=1;" vertex="1" parent="1">
          <mxGeometry x="930" y="1110" width="140" height="70" as="geometry" />
        </mxCell>
        <mxCell id="aPXMBiHBA66qFUJw5fnC-26" value="문의글&lt;br&gt;관리" style="ellipse;whiteSpace=wrap;html=1;" vertex="1" parent="1">
          <mxGeometry x="540" y="890" width="140" height="70" as="geometry" />
        </mxCell>
        <mxCell id="aPXMBiHBA66qFUJw5fnC-27" value="" style="endArrow=none;html=1;rounded=0;entryX=0.767;entryY=0.25;entryDx=0;entryDy=0;entryPerimeter=0;" edge="1" parent="1" source="aPXMBiHBA66qFUJw5fnC-1" target="aPXMBiHBA66qFUJw5fnC-19">
          <mxGeometry width="50" height="50" relative="1" as="geometry">
            <mxPoint x="420" y="565" as="sourcePoint" />
            <mxPoint x="550" y="785" as="targetPoint" />
          </mxGeometry>
        </mxCell>
        <mxCell id="aPXMBiHBA66qFUJw5fnC-28" value="공지사항&lt;br&gt;수정" style="ellipse;whiteSpace=wrap;html=1;" vertex="1" parent="1">
          <mxGeometry x="970" y="590" width="140" height="70" as="geometry" />
        </mxCell>
        <mxCell id="aPXMBiHBA66qFUJw5fnC-29" value="공지사항&lt;br&gt;등록" style="ellipse;whiteSpace=wrap;html=1;" vertex="1" parent="1">
          <mxGeometry x="970" y="690" width="140" height="70" as="geometry" />
        </mxCell>
        <mxCell id="aPXMBiHBA66qFUJw5fnC-30" value="공지사항&lt;br&gt;조회" style="ellipse;whiteSpace=wrap;html=1;" vertex="1" parent="1">
          <mxGeometry x="750" y="680" width="140" height="70" as="geometry" />
        </mxCell>
        <mxCell id="aPXMBiHBA66qFUJw5fnC-31" value="&amp;lt;&amp;lt;extend&amp;gt;&amp;gt;" style="html=1;verticalAlign=bottom;labelBackgroundColor=none;endArrow=open;endFill=0;dashed=1;rounded=0;exitX=0;exitY=0.5;exitDx=0;exitDy=0;entryX=1;entryY=0.5;entryDx=0;entryDy=0;" edge="1" parent="1" source="aPXMBiHBA66qFUJw5fnC-30" target="aPXMBiHBA66qFUJw5fnC-3">
          <mxGeometry width="160" relative="1" as="geometry">
            <mxPoint x="730" y="810" as="sourcePoint" />
            <mxPoint x="639" y="750" as="targetPoint" />
          </mxGeometry>
        </mxCell>
        <mxCell id="aPXMBiHBA66qFUJw5fnC-32" value="&amp;lt;&amp;lt;extend&amp;gt;&amp;gt;" style="html=1;verticalAlign=bottom;labelBackgroundColor=none;endArrow=open;endFill=0;dashed=1;rounded=0;exitX=0;exitY=0.5;exitDx=0;exitDy=0;entryX=0.971;entryY=0.4;entryDx=0;entryDy=0;entryPerimeter=0;" edge="1" parent="1" source="aPXMBiHBA66qFUJw5fnC-29" target="aPXMBiHBA66qFUJw5fnC-30">
          <mxGeometry width="160" relative="1" as="geometry">
            <mxPoint x="691" y="820" as="sourcePoint" />
            <mxPoint x="600" y="760" as="targetPoint" />
          </mxGeometry>
        </mxCell>
        <mxCell id="aPXMBiHBA66qFUJw5fnC-33" value="&amp;lt;&amp;lt;extend&amp;gt;&amp;gt;" style="html=1;verticalAlign=bottom;labelBackgroundColor=none;endArrow=open;endFill=0;dashed=1;rounded=0;exitX=0;exitY=0.5;exitDx=0;exitDy=0;" edge="1" parent="1" source="aPXMBiHBA66qFUJw5fnC-28" target="aPXMBiHBA66qFUJw5fnC-30">
          <mxGeometry width="160" relative="1" as="geometry">
            <mxPoint x="731" y="665" as="sourcePoint" />
            <mxPoint x="640" y="605" as="targetPoint" />
          </mxGeometry>
        </mxCell>
        <mxCell id="aPXMBiHBA66qFUJw5fnC-34" value="&amp;lt;&amp;lt;extend&amp;gt;&amp;gt;" style="html=1;verticalAlign=bottom;labelBackgroundColor=none;endArrow=open;endFill=0;dashed=1;rounded=0;exitX=0;exitY=1;exitDx=0;exitDy=0;" edge="1" parent="1" source="aPXMBiHBA66qFUJw5fnC-23" target="aPXMBiHBA66qFUJw5fnC-30">
          <mxGeometry width="160" relative="1" as="geometry">
            <mxPoint x="671" y="580" as="sourcePoint" />
            <mxPoint x="580" y="520" as="targetPoint" />
          </mxGeometry>
        </mxCell>
        <mxCell id="aPXMBiHBA66qFUJw5fnC-35" value="사용자" style="shape=umlActor;verticalLabelPosition=bottom;verticalAlign=top;html=1;" vertex="1" parent="1">
          <mxGeometry x="1280" y="930" width="30" height="60" as="geometry" />
        </mxCell>
        <mxCell id="aPXMBiHBA66qFUJw5fnC-36" value="&amp;lt;&amp;lt;extend&amp;gt;&amp;gt;" style="html=1;verticalAlign=bottom;labelBackgroundColor=none;endArrow=open;endFill=0;dashed=1;rounded=0;exitX=1;exitY=0.5;exitDx=0;exitDy=0;" edge="1" parent="1" source="aPXMBiHBA66qFUJw5fnC-30" target="aPXMBiHBA66qFUJw5fnC-35">
          <mxGeometry width="160" relative="1" as="geometry">
            <mxPoint x="738" y="789" as="sourcePoint" />
            <mxPoint x="685" y="762" as="targetPoint" />
          </mxGeometry>
        </mxCell>
        <mxCell id="aPXMBiHBA66qFUJw5fnC-39" value="문의글 작성" style="ellipse;whiteSpace=wrap;html=1;" vertex="1" parent="1">
          <mxGeometry x="750" y="780" width="140" height="70" as="geometry" />
        </mxCell>
        <mxCell id="aPXMBiHBA66qFUJw5fnC-40" value="문의글 수정" style="ellipse;whiteSpace=wrap;html=1;" vertex="1" parent="1">
          <mxGeometry x="930" y="1020" width="140" height="70" as="geometry" />
        </mxCell>
        <mxCell id="aPXMBiHBA66qFUJw5fnC-41" value="&amp;lt;&amp;lt;extend&amp;gt;&amp;gt;" style="html=1;verticalAlign=bottom;labelBackgroundColor=none;endArrow=open;endFill=0;dashed=1;rounded=0;exitX=0;exitY=0.5;exitDx=0;exitDy=0;" edge="1" parent="1" source="aPXMBiHBA66qFUJw5fnC-24" target="aPXMBiHBA66qFUJw5fnC-26">
          <mxGeometry width="160" relative="1" as="geometry">
            <mxPoint x="703" y="877" as="sourcePoint" />
            <mxPoint x="650" y="850" as="targetPoint" />
          </mxGeometry>
        </mxCell>
        <mxCell id="aPXMBiHBA66qFUJw5fnC-45" value="&amp;lt;&amp;lt;extend&amp;gt;&amp;gt;" style="html=1;verticalAlign=bottom;labelBackgroundColor=none;endArrow=open;endFill=0;dashed=1;rounded=0;exitX=0;exitY=0.5;exitDx=0;exitDy=0;entryX=1;entryY=1;entryDx=0;entryDy=0;" edge="1" parent="1" source="aPXMBiHBA66qFUJw5fnC-40" target="aPXMBiHBA66qFUJw5fnC-24">
          <mxGeometry width="160" relative="1" as="geometry">
            <mxPoint x="750" y="895" as="sourcePoint" />
            <mxPoint x="684" y="923" as="targetPoint" />
          </mxGeometry>
        </mxCell>
        <mxCell id="aPXMBiHBA66qFUJw5fnC-46" value="&amp;lt;&amp;lt;extend&amp;gt;&amp;gt;" style="html=1;verticalAlign=bottom;labelBackgroundColor=none;endArrow=open;endFill=0;dashed=1;rounded=0;exitX=0;exitY=0.5;exitDx=0;exitDy=0;entryX=0.657;entryY=0.929;entryDx=0;entryDy=0;entryPerimeter=0;" edge="1" parent="1" source="aPXMBiHBA66qFUJw5fnC-25" target="aPXMBiHBA66qFUJw5fnC-24">
          <mxGeometry width="160" relative="1" as="geometry">
            <mxPoint x="760" y="905" as="sourcePoint" />
            <mxPoint x="694" y="933" as="targetPoint" />
          </mxGeometry>
        </mxCell>
        <mxCell id="aPXMBiHBA66qFUJw5fnC-47" value="1:1 문의 작성" style="ellipse;whiteSpace=wrap;html=1;" vertex="1" parent="1">
          <mxGeometry x="960" y="830" width="140" height="70" as="geometry" />
        </mxCell>
        <mxCell id="aPXMBiHBA66qFUJw5fnC-48" value="&amp;lt;&amp;lt;extend&amp;gt;&amp;gt;" style="html=1;verticalAlign=bottom;labelBackgroundColor=none;endArrow=open;endFill=0;dashed=1;rounded=0;" edge="1" parent="1" source="aPXMBiHBA66qFUJw5fnC-47" target="aPXMBiHBA66qFUJw5fnC-35">
          <mxGeometry width="160" relative="1" as="geometry">
            <mxPoint x="880" y="795" as="sourcePoint" />
            <mxPoint x="1080" y="780" as="targetPoint" />
          </mxGeometry>
        </mxCell>
        <mxCell id="aPXMBiHBA66qFUJw5fnC-49" value="&amp;lt;&amp;lt;include&amp;gt;&amp;gt;" style="html=1;verticalAlign=bottom;labelBackgroundColor=none;endArrow=open;endFill=0;dashed=1;rounded=0;entryX=1;entryY=0.5;entryDx=0;entryDy=0;" edge="1" parent="1" source="aPXMBiHBA66qFUJw5fnC-47" target="aPXMBiHBA66qFUJw5fnC-39">
          <mxGeometry width="160" relative="1" as="geometry">
            <mxPoint x="650" y="890" as="sourcePoint" />
            <mxPoint x="910" y="920" as="targetPoint" />
          </mxGeometry>
        </mxCell>
        <mxCell id="aPXMBiHBA66qFUJw5fnC-50" value="&amp;lt;&amp;lt;extend&amp;gt;&amp;gt;" style="html=1;verticalAlign=bottom;labelBackgroundColor=none;endArrow=open;endFill=0;dashed=1;rounded=0;exitX=1;exitY=0.5;exitDx=0;exitDy=0;entryX=0.267;entryY=0.75;entryDx=0;entryDy=0;entryPerimeter=0;" edge="1" parent="1" source="aPXMBiHBA66qFUJw5fnC-25" target="aPXMBiHBA66qFUJw5fnC-35">
          <mxGeometry width="160" relative="1" as="geometry">
            <mxPoint x="1085" y="930" as="sourcePoint" />
            <mxPoint x="1290" y="985" as="targetPoint" />
          </mxGeometry>
        </mxCell>
        <mxCell id="aPXMBiHBA66qFUJw5fnC-51" value="&amp;lt;&amp;lt;extend&amp;gt;&amp;gt;" style="html=1;verticalAlign=bottom;labelBackgroundColor=none;endArrow=open;endFill=0;dashed=1;rounded=0;exitX=1.014;exitY=0.343;exitDx=0;exitDy=0;exitPerimeter=0;entryX=0.467;entryY=0.633;entryDx=0;entryDy=0;entryPerimeter=0;" edge="1" parent="1" source="aPXMBiHBA66qFUJw5fnC-40" target="aPXMBiHBA66qFUJw5fnC-35">
          <mxGeometry width="160" relative="1" as="geometry">
            <mxPoint x="1095" y="940" as="sourcePoint" />
            <mxPoint x="1282" y="970" as="targetPoint" />
          </mxGeometry>
        </mxCell>
        <mxCell id="aPXMBiHBA66qFUJw5fnC-52" value="&amp;lt;&amp;lt;extend&amp;gt;&amp;gt;" style="html=1;verticalAlign=bottom;labelBackgroundColor=none;endArrow=open;endFill=0;dashed=1;rounded=0;exitX=0.993;exitY=0.357;exitDx=0;exitDy=0;exitPerimeter=0;" edge="1" parent="1" source="aPXMBiHBA66qFUJw5fnC-24" target="aPXMBiHBA66qFUJw5fnC-35">
          <mxGeometry width="160" relative="1" as="geometry">
            <mxPoint x="1105" y="950" as="sourcePoint" />
            <mxPoint x="1105" y="765" as="targetPoint" />
          </mxGeometry>
        </mxCell>
        <mxCell id="aPXMBiHBA66qFUJw5fnC-53" value="문의글 답변" style="ellipse;whiteSpace=wrap;html=1;" vertex="1" parent="1">
          <mxGeometry x="750" y="890" width="140" height="70" as="geometry" />
        </mxCell>
        <mxCell id="aPXMBiHBA66qFUJw5fnC-56" value="&amp;lt;&amp;lt;include&amp;gt;&amp;gt;" style="html=1;verticalAlign=bottom;labelBackgroundColor=none;endArrow=open;endFill=0;dashed=1;rounded=0;exitX=1;exitY=0.5;exitDx=0;exitDy=0;" edge="1" parent="1" source="aPXMBiHBA66qFUJw5fnC-53" target="aPXMBiHBA66qFUJw5fnC-35">
          <mxGeometry width="160" relative="1" as="geometry">
            <mxPoint x="620" y="970" as="sourcePoint" />
            <mxPoint x="1300" y="1030" as="targetPoint" />
          </mxGeometry>
        </mxCell>
        <mxCell id="aPXMBiHBA66qFUJw5fnC-57" value="창고현황&lt;br&gt;리스트" style="ellipse;whiteSpace=wrap;html=1;" vertex="1" parent="1">
          <mxGeometry x="960" y="410" width="140" height="70" as="geometry" />
        </mxCell>
        <mxCell id="aPXMBiHBA66qFUJw5fnC-58" value="&amp;lt;&amp;lt;extend&amp;gt;&amp;gt;" style="html=1;verticalAlign=bottom;labelBackgroundColor=none;endArrow=open;endFill=0;dashed=1;rounded=0;exitX=0;exitY=0.5;exitDx=0;exitDy=0;entryX=1;entryY=0.5;entryDx=0;entryDy=0;" edge="1" parent="1" source="aPXMBiHBA66qFUJw5fnC-57" target="aPXMBiHBA66qFUJw5fnC-8">
          <mxGeometry width="160" relative="1" as="geometry">
            <mxPoint x="970" y="335" as="sourcePoint" />
            <mxPoint x="865" y="245" as="targetPoint" />
          </mxGeometry>
        </mxCell>
        <mxCell id="aPXMBiHBA66qFUJw5fnC-60" value="&amp;lt;&amp;lt;extend&amp;gt;&amp;gt;" style="html=1;verticalAlign=bottom;labelBackgroundColor=none;endArrow=open;endFill=0;dashed=1;rounded=0;exitX=1;exitY=0.5;exitDx=0;exitDy=0;entryX=0.2;entryY=0.217;entryDx=0;entryDy=0;entryPerimeter=0;" edge="1" parent="1" source="aPXMBiHBA66qFUJw5fnC-57" target="aPXMBiHBA66qFUJw5fnC-35">
          <mxGeometry width="160" relative="1" as="geometry">
            <mxPoint x="1200" y="560" as="sourcePoint" />
            <mxPoint x="1130" y="500" as="targetPoint" />
          </mxGeometry>
        </mxCell>
        <mxCell id="ZwAwgHhzOcW7zNF5LWMa-73" value="비회원" style="shape=umlActor;verticalLabelPosition=bottom;verticalAlign=top;html=1;outlineConnect=0;" vertex="1" parent="1">
          <mxGeometry x="1410" y="1000" width="30" height="60" as="geometry" />
        </mxCell>
        <mxCell id="ZwAwgHhzOcW7zNF5LWMa-74" value="회원" style="shape=umlActor;verticalLabelPosition=bottom;verticalAlign=top;html=1;outlineConnect=0;" vertex="1" parent="1">
          <mxGeometry x="1410" y="850" width="30" height="60" as="geometry" />
        </mxCell>
        <mxCell id="ZwAwgHhzOcW7zNF5LWMa-75" value="" style="endArrow=none;html=1;rounded=0;exitX=1;exitY=0.3333333333333333;exitDx=0;exitDy=0;exitPerimeter=0;" edge="1" parent="1" source="aPXMBiHBA66qFUJw5fnC-35" target="ZwAwgHhzOcW7zNF5LWMa-74">
          <mxGeometry width="50" height="50" relative="1" as="geometry">
            <mxPoint x="1330" y="950" as="sourcePoint" />
            <mxPoint x="1380" y="900" as="targetPoint" />
          </mxGeometry>
        </mxCell>
        <mxCell id="ZwAwgHhzOcW7zNF5LWMa-76" value="" style="endArrow=none;html=1;rounded=0;" edge="1" parent="1" source="aPXMBiHBA66qFUJw5fnC-35" target="ZwAwgHhzOcW7zNF5LWMa-73">
          <mxGeometry width="50" height="50" relative="1" as="geometry">
            <mxPoint x="1320" y="960" as="sourcePoint" />
            <mxPoint x="1420" y="899" as="targetPoint" />
          </mxGeometry>
        </mxCell>
        <mxCell id="LVD5uner1pH98OSibQYe-44" value="&amp;lt;&amp;lt;extend&amp;gt;&amp;gt;" style="html=1;verticalAlign=bottom;labelBackgroundColor=none;endArrow=open;endFill=0;dashed=1;rounded=0;" edge="1" parent="1" target="aPXMBiHBA66qFUJw5fnC-1">
          <mxGeometry width="160" relative="1" as="geometry">
            <mxPoint x="960" y="450" as="sourcePoint" />
            <mxPoint x="900" y="395" as="targetPoint" />
          </mxGeometry>
        </mxCell>
        <mxCell id="VPL8sljp6j5mBV6DJJxx-2" value="" style="endArrow=none;html=1;rounded=0;entryX=0;entryY=0.5;entryDx=0;entryDy=0;" edge="1" parent="1" source="aPXMBiHBA66qFUJw5fnC-26" target="aPXMBiHBA66qFUJw5fnC-39">
          <mxGeometry width="50" height="50" relative="1" as="geometry">
            <mxPoint x="700" y="910" as="sourcePoint" />
            <mxPoint x="750" y="860" as="targetPoint" />
          </mxGeometry>
        </mxCell>
        <mxCell id="VPL8sljp6j5mBV6DJJxx-3" value="" style="endArrow=none;html=1;rounded=0;entryX=0;entryY=0.5;entryDx=0;entryDy=0;exitX=1;exitY=0.5;exitDx=0;exitDy=0;" edge="1" parent="1" source="aPXMBiHBA66qFUJw5fnC-26" target="aPXMBiHBA66qFUJw5fnC-53">
          <mxGeometry width="50" height="50" relative="1" as="geometry">
            <mxPoint x="658" y="905" as="sourcePoint" />
            <mxPoint x="760" y="825" as="targetPoint" />
          </mxGeometry>
        </mxCell>
        <mxCell id="gJPttzL6rgR0Oh77ZObL-1" value="&amp;lt;&amp;lt;include&amp;gt;&amp;gt;" style="html=1;verticalAlign=bottom;labelBackgroundColor=none;endArrow=open;endFill=0;dashed=1;rounded=0;entryX=0.5;entryY=0;entryDx=0;entryDy=0;exitX=0.5;exitY=1;exitDx=0;exitDy=0;" edge="1" parent="1" source="aPXMBiHBA66qFUJw5fnC-39" target="aPXMBiHBA66qFUJw5fnC-53">
          <mxGeometry width="160" relative="1" as="geometry">
            <mxPoint x="979" y="858" as="sourcePoint" />
            <mxPoint x="900" y="835" as="targetPoint" />
            <mxPoint as="offset" />
          </mxGeometry>
        </mxCell>
      </root>
    </mxGraphModel>
  </diagram>
</mxfile>
